<svg xmlns="http://www.w3.org/2000/svg" viewBox="0 0 678.96 672"><defs><style>.cls-1{fill:#b9928b;}.cls-1,.cls-2{stroke:#b9928b;stroke-miterlimit:10;}.cls-2{fill:none;stroke-width:7px;}</style></defs><title>Amorea letra</title><g id="Layer_3" data-name="Layer 3"><path class="cls-1" d="M349.53,24H444.2L672.5,614.26s30.63,78,78,75.17V695H519.37v-7S612.64,702,570.88,607.3Z" transform="translate(-72 -23.5)"/><path class="cls-1" d="M376,89.43,214.5,512.63S164.38,663,284.1,688v5.57H72.5V688S131,690.82,183.87,557.18L367.63,72.72Z" transform="translate(-72 -23.5)"/><path class="cls-2" d="M312.81,424.89c4.83.64,46.12,5.5,71.91-23.05,13.72-15.19,17-33.12,18.35-41.2,3.07-18.14-.1-30.13-6.57-53.16-1-3.49-2.79-9.28-7.31-10.82-3.54-1.21-7.55.59-9.48,2.06-12.87,9.8,2.22,54.1,1.83,54.18-.23.06-1.53-17.35-12.76-24.52-.72-.46-7.83-4.87-12.88-2.17-7.21,3.87-5.57,19.79-4.33,25.76,6.13,29.59,49.91,44.55,57.36,47.1C490.21,426.83,608.29,300.86,616.44,292" transform="translate(-72 -23.5)"/></g></svg>